<?xml version="1.0" encoding="utf-8"?>
<!-- Generator: Adobe Illustrator 18.0.0, SVG Export Plug-In . SVG Version: 6.00 Build 0)  -->
<!DOCTYPE svg PUBLIC "-//W3C//DTD SVG 1.0//EN" "http://www.w3.org/TR/2001/REC-SVG-20010904/DTD/svg10.dtd">
<svg version="1.0" id="Layer_1" xmlns="http://www.w3.org/2000/svg" xmlns:xlink="http://www.w3.org/1999/xlink" x="0px" y="0px"
	 viewBox="0 0 258.8 110.6" enable-background="new 0 0 258.8 110.6" xml:space="preserve">
<g>
	<rect x="205.6" y="3.5" fill="#884B2E" width="53.2" height="103.6"/>
	<g>
		<polygon opacity="0.2" fill="#FFFFFF" points="223,9.1 223,3.5 258.8,3.5 258.8,107.1 252.9,101.4 252.9,74.1 258.8,71.8 
			252.9,69.6 252.9,41 258.8,38.8 252.9,36.5 252.9,9.1 		"/>
	</g>
	<polygon opacity="0.3" fill="#FFFFFF" points="252.9,41 224.9,41 224.9,38.8 258.8,38.8 	"/>
	<polygon opacity="0.3" fill="#FFFFFF" points="252.9,74.1 224.9,74.1 224.9,71.8 258.8,71.8 	"/>
	<g opacity="0.2">
		<polygon fill="#12100B" points="258.8,38.8 224.9,38.8 224.9,36.5 252.9,36.5 		"/>
		<polygon fill="#12100B" points="258.8,71.8 224.9,71.8 224.9,69.6 252.9,69.6 		"/>
		<polygon fill="#12100B" points="258.8,107.1 222,107.1 222,101.4 252.9,101.4 		"/>
	</g>
</g>
<g>
	<g>
		<g>
			<polygon fill="#80B5E3" points="230.4,101.5 226,107.1 11.7,107.1 11.7,3.5 226.4,3.5 230.4,9.1 228.6,18.6 234.8,28 230.4,31.8 
				233,46.2 228.1,53.9 231.8,59.3 227.1,72.1 229.2,79.6 232.7,91.5 			"/>
		</g>
		<polygon fill="#80B5E3" points="11.7,107.1 11.7,3.5 0,0 5.7,10.9 1.4,18.3 5.7,25.7 1.4,33.1 5.7,40.5 1.4,47.9 5.7,55.3 
			1.4,62.7 5.7,70.1 1.4,77.5 5.7,84.9 1.4,92.3 5.7,99.7 0,110.6 		"/>
	</g>
</g>
<path fill="#FDC300" d="M208,64.8C208,64.8,208,64.7,208,64.8C208,64.7,208,64.7,208,64.8z"/>
<g>
	<g>
		<path fill="#884B2E" d="M189,60.8c3.3,1.2,11.4-6.9,14.1-9.1c2.9-2.3,4.3-0.8,2.5,1.9c-1.7,2.6-5.2,7.1-3.6,8.1
			c3.3,2.1,7.6-2.9,9.2-5c5.1-6.5,3.9,1.1,2.6,4.7c-2.9,8.1-6.1,29.1-38.5,21.5c-5.4-1.3-13.3-8.2-7.9-13c5.5-5,22.2-4,27,1.5
			c1.5,1.7,0.5,4-1.8,2.2c-1.7-1.3-4.5-3.1-10.1-3.1c-2.5,0-7.2,2.1-4.2,5.1c3,3,16,3.7,20.3,2c8.3-3.4,8.7-11.8,9.4-12.8
			c0,0,0.1-0.1,0.1-0.1c0,0-0.1,0-0.1,0.1c-1.7,1.5-4.2,3.4-9,2c-3.5-1-2.4-4.1-1.8-6c-3.5,2.6-6.2,3.5-9.4,3
			c-1.7-0.3-3.5-0.9-4.6-2.7c-9.8,2.7-14.5-2.2-10-10.5c3.3-6.1,7.3-11.4,9.1-13.6c4.7-5.6,9-1.7,6.5,1.1
			c-3.2,3.4-8.8,8.6-11.6,13.4c-4.3,7.4,2.5,8.3,5.1,7.6c-0.1-0.2-0.1-0.4-0.1-0.7c-1.3-7.2,7.7-16,14.4-9.2
			c1.6,3.4-3.5,7.8-8.9,10.3c-0.2,0.1-0.4,0.2-0.6,0.3C187.5,60.1,188.1,60.5,189,60.8z M185.7,57.8c3.7-1.7,6.8-4.4,5.5-5.8
			C189.2,49.9,184.7,54.3,185.7,57.8z"/>
		<path fill="#884B2E" d="M52.9,51.4c4.9,4.3,15.6-11,11.7-14.1c-6.1-4.7-17.2,8.1-18.7,15c-1.2,5.5,2.3,11.2,9.2,9.6
			c8.3-1.9,13-6.3,17.1-11.3c2.5-3.1,13.1-18.5,10.5-21.3c-2.2-2.3-7.3,0.7-7.6,9.8c-0.1,3.6,0.7,9.3,0.6,15.4
			c1.7-3,5.1-7.1,8.1-7.5c9.6-1.4-2.3,13.8,1.8,12.9c2.8-0.6,6.2-16.5,14.2-16.6c7.2-0.1,4.7,13.7-2.4,16.9c-6.7,3-7.7-4.1-5.5-9.7
			c0.9-2.3,5.3-3.9,3.4-1.6c-2.2,2.7-1.7,7.3,1.2,6.7c4.9-1.1,7.5-11.1,2.2-9.3C93.3,48,92.3,58,87.4,61.7c-1.7,1.1-4.2,1.3-4.8,0.6
			c-1.9-2.2,4.2-12,0.7-11.5c-2.7,0.4-5.2,7-6.8,10.1c-0.3,0.6-1.1,3.8-1.1,3.8l-3.6,1c1-7.1,0.7-14.6,0.5-24.4
			C72,30.8,78.9,22,85.4,22c10,0,4.9,9.2,0.5,15c-7.5,9.8-17,26.1-27.2,33.2c-13.8,9.5-26.2-3.1-21-17.2
			c3.3-8.9,15.6-24.7,27.2-19.4c9.6,4.4,3,15.1-2.7,19.6c-2.9,2.3-8,3.5-10.6,0.2C50.5,52.2,51.5,50.1,52.9,51.4z"/>
		<path fill="#884B2E" d="M116.1,47.2c0.3-2.1-0.7-2.6-2.4-2.3c-2.4,0.3-4.7,3.1-4.9,6.1c-0.1,1.8,1.3,3.3,4.5,3
			c5.6-0.6,8.9-9.8,13.7-12.2c9.4-4.7,11.1,10,3.3,15.4c-5,3.5-10.8,0.1-9.6-6.7c0.9-4.9,5.2-9.9,10.6-9.6c5.6,0.3,5,5.4,9.6,6.5
			c4.9,1.2,9.5-8.8,9.7-13.5c0.2-5.1-3-5-7,1.4c-2.4,4-5.6,17.7-0.3,19.3c4.4,1.3,11.4-14.2,20.1-12.2c5.7,1.3,4.3,13.3-1,15.6
			c-2.6,1.8-5.5,1.4-7.5,0.9c-5.5-1.4-4.5-9.6,0.3-13.8c2.6-2.2,4.8-1,2.1,0.9c-3.2,2.2-3,6.5-0.5,7.3c6.8,2.1,9.4-8.9,4-8.7
			c-1.9,0.1-4.7,1.7-8.5,6.1c-2.3,2.7-6.5,7.7-9,7.9c-2.6,0.2-4.5-0.9-5.3-5.7c-1.1-6.8,1.1-14.3,3.7-20c7.2-15.7,19.4-8,14.9,2.3
			c-2.1,4.8-7.6,12.7-12.9,14.3c-5.9,1.8-6.1-3.4-10.4-5.6c-6.3-3.3-13.6,7.2-6,8.1c5.6,0.1,8.8-9.9,2.1-8.5
			c-6.3,1.4-8.6,9.9-13.6,13.7c-6.9,5.2-12.9-0.7-9.9-9.4c0.9-2.7,4.8-6.3,8.3-6.4c3.6-0.1,5.2,2.4,3.9,5.9
			C117.5,48.9,115.8,48.8,116.1,47.2z"/>
		<path fill="#884B2E" d="M170.9,47c-3.3,2.4-4.5,7.3-2.3,9.9c0.9,1.1,3.8,1.4,6.1,0.5l0.6,1.9c-8,4.6-13-2.1-9.8-10
			c0.3-0.9,1.9-3.1,3.3-4.3C170.9,43.2,173,45.4,170.9,47z"/>
		<path fill="#884B2E" d="M174.6,40.1c-3-2.1-3.8,0.2-2.1,1.6c7.8,6.2,14.7,4.8,17,3.3c2.1-1.3,0.8-2.7-0.9-2.4
			C183.1,43.4,178.6,42.9,174.6,40.1z"/>
	</g>
</g>
<polygon opacity="0.2" fill="#FFFFFF" points="19.8,101.5 11.7,107.1 11.7,3.5 19.8,9.1 "/>
<polygon opacity="0.2" fill="#FFFFFF" points="11.7,3.5 19.8,9.1 230.4,9.1 226.4,3.5 "/>
<polygon opacity="0.2" fill="#12100B" points="230.4,101.5 19.8,101.5 11.7,107.1 226,107.1 "/>
</svg>
