<?xml version="1.0" encoding="UTF-8" standalone="no"?>
<!-- Created with Inkscape (http://www.inkscape.org/) -->

<svg
   width="128"
   height="128"
   viewBox="0 0 128 128"
   version="1.1"
   id="svg1"
   sodipodi:docname="container.svg"
   inkscape:version="1.3 (0e150ed6c4, 2023-07-21)"
   xmlns:inkscape="http://www.inkscape.org/namespaces/inkscape"
   xmlns:sodipodi="http://sodipodi.sourceforge.net/DTD/sodipodi-0.dtd"
   xmlns="http://www.w3.org/2000/svg"
   xmlns:svg="http://www.w3.org/2000/svg">
  <sodipodi:namedview
     id="namedview1"
     pagecolor="#ffffff"
     bordercolor="#ffffff"
     borderopacity="1"
     inkscape:showpageshadow="false"
     inkscape:pageopacity="0"
     inkscape:pagecheckerboard="true"
     inkscape:deskcolor="#505050"
     inkscape:document-units="px"
     labelstyle="default"
     inkscape:clip-to-page="false"
     borderlayer="true"
     showborder="true"
     inkscape:zoom="4"
     inkscape:cx="32.5"
     inkscape:cy="67.875"
     inkscape:window-width="2560"
     inkscape:window-height="1371"
     inkscape:window-x="0"
     inkscape:window-y="0"
     inkscape:window-maximized="1"
     inkscape:current-layer="layer1" />
  <defs
     id="defs1" />
  <g
     inkscape:label="Layer 1"
     inkscape:groupmode="layer"
     id="layer1">
    <path
       sodipodi:type="star"
       style="opacity:1;fill:#f8bf11;fill-opacity:1"
       id="path26"
       inkscape:flatsided="true"
       sodipodi:sides="6"
       sodipodi:cx="36.716908"
       sodipodi:cy="51.545544"
       sodipodi:r1="37.902622"
       sodipodi:r2="32.824635"
       sodipodi:arg1="0.52359878"
       sodipodi:arg2="1.0471976"
       inkscape:rounded="0"
       inkscape:randomized="0"
       d="M 69.541541,70.496855 36.716907,89.448166 3.8922737,70.496855 l 2e-7,-37.902623 32.8246341,-18.951311 32.824633,18.951312 z"
       transform="matrix(-1.6885375,0,0,1.6885375,125.99787,-23.036583)" />
    <path
       id="path27"
       style="opacity:1;fill:#000000;fill-opacity:1;stroke-width:1.68854"
       d="M 63.999999,0 91.71289,16 36.287108,48 8.5742195,32 Z" />
    <path
       id="path28"
       style="opacity:1;fill:#808080;fill-opacity:1;stroke-width:1.68854"
       d="M 8.5781195,32 63.999999,63.998047 v 32 L 63.996093,96 8.5742195,64.001953 v -32 z" />
    <path
       id="path29"
       style="opacity:1;fill:#808080;fill-opacity:1;stroke-width:1.68854"
       d="m 91.71289,47.998047 v 32 l 0.0039,0.002 -27.712891,16 -0.0039,-0.002 v -32 z" />
    <path
       id="path40"
       style="opacity:1;fill:#000000;fill-opacity:1;stroke-width:1.68854"
       d="M 8.5781195,32 36.287108,47.998047 v 32 L 36.283202,80 8.5742195,64.001953 v -32 z" />
    <path
       id="path41"
       style="opacity:1;fill:#e6e6e6;fill-opacity:1;stroke-width:1.68854"
       d="m 119.42187,32 0.004,0.002 v 32 L 91.716796,80 l -0.0039,-0.002 v -32 z" />
    <path
       id="path42"
       style="opacity:1;fill:#808080;fill-opacity:1;stroke-width:1.68854"
       d="M 91.71289,16 119.42578,32 63.999999,64 36.287108,48 Z" />
    <path
       id="path43"
       style="opacity:1;fill:#e6e6e6;fill-opacity:1;stroke-width:1.68854"
       d="M 91.71289,16 119.42578,32 91.71289,48 63.999999,32 Z" />
    <g
       id="g35"
       transform="matrix(-1,0,0,1,128,-2e-5)">
      <path
         id="path33"
         style="opacity:0.25;fill:#ffffff;fill-opacity:1;stroke-width:1.68854"
         d="M 64.000001,0 8.5742187,31.999999 64.000001,64 119.42578,31.999999 Z" />
      <path
         id="path34"
         style="opacity:0.25;fill:#808080;fill-opacity:1;stroke-width:1.68854"
         d="M 119.42188,32 64,63.998046 v 63.999994 l 0.0039,0.002 55.42188,-31.998087 V 32.001952 Z" />
      <path
         id="path35"
         style="opacity:0.25;fill:#000000;fill-opacity:1;stroke-width:1.68854"
         d="M 8.5781247,32 63.999999,63.998046 v 63.999994 l -0.004,0.002 L 8.5742187,96.001953 V 32.001952 Z" />
    </g>
  </g>
</svg>
