<?xml version="1.0" encoding="utf-8"?>
<!-- Generator: Adobe Illustrator 22.1.0, SVG Export Plug-In . SVG Version: 6.00 Build 0)  -->
<svg version="1.1" id="Layer_1" xmlns="http://www.w3.org/2000/svg" xmlns:xlink="http://www.w3.org/1999/xlink" x="0px" y="0px"
	 viewBox="0 0 335 200" style="enable-background:new 0 0 335 200;" xml:space="preserve">
<style type="text/css">
	.st0{fill:none;stroke:#666666;stroke-width:4.25;stroke-linecap:round;stroke-linejoin:round;}
	.st1{fill:#83BFA1;}
	.st2{fill:#E85524;}
</style>
<g>
	<path class="st0" d="M255.3,195.1H79.7c-4.4,0-8-3.6-8-8L57.7,51c0-4.4,3.6-8,8-8h203.6c4.4,0,8,3.6,8,8l-14,136.1
		C263.3,191.5,259.7,195.1,255.3,195.1z"/>
	<path class="st0" d="M145.5,42.4c0-11.9,9.6-21.5,21.5-21.5s21.5,9.6,21.5,21.5"/>
	<path class="st0" d="M129.5,42.4c0-20.7,16.8-37.5,37.5-37.5s37.5,16.8,37.5,37.5"/>
</g>
<g>
	<polygon class="st1" points="178.3,130.7 101,53.8 178.3,81.8 	"/>
	<polygon class="st1" points="122.4,186.6 177.6,131.3 160.8,114.7 	"/>
	<polygon class="st1" points="179.5,129.6 212.3,96.9 179.5,82.3 	"/>
	<polygon class="st2" points="227.4,81.8 180.9,81.8 240.6,108.2 	"/>
</g>
</svg>
